<svg id="visual" viewBox="0 0 960 540" width="960" height="540" xmlns="http://www.w3.org/2000/svg" xmlns:xlink="http://www.w3.org/1999/xlink" version="1.1"><rect x="0" y="0" width="960" height="540" fill="#000000"></rect><path d="M0 389L32 390C64 391 128 393 192 382.2C256 371.3 320 347.7 384 332.7C448 317.7 512 311.3 576 306.3C640 301.3 704 297.7 768 305.8C832 314 896 334 928 344L960 354L960 541L928 541C896 541 832 541 768 541C704 541 640 541 576 541C512 541 448 541 384 541C320 541 256 541 192 541C128 541 64 541 32 541L0 541Z" fill="#2F25B1" stroke-linecap="round" stroke-linejoin="miter"></path></svg>