<svg enable-background="new 0 0 100 100" height="20" viewBox="0 0 100 100" width="20" xmlns="http://www.w3.org/2000/svg"><path d="m47.051501 93.821159c-9.223318-.488193-15.587225-2.377026-19.582836-5.808884-6.872444-5.907691-10.792497-14.294106-17.5167439-37.480258-.9008277-3.103497-1.8917381-6.453996-2.2055752-7.447813-2.063186-6.535361-5.0475431-19.083023-6.88988122-28.971789-.23247186-1.240818-.47656661-2.525224-.54921343-2.859403-.33708492-1.6011479.35161326-2.8710258 1.84233705-3.3969924 3.5597238-1.2553475 47.5695297-2.2113874 69.4799977-1.5081602 2.031212.063927 5.51829.1743533 7.750026.2440953 8.796155.2731533 17.284277.8368973 18.504745 1.2291932 1.261162.4039198 2.112577 1.8830217 1.842336 3.1906751-.06969.334176-.345817 1.821997-.613138 3.306911-4.106026 22.689241-14.599224 57.022408-20.268637 66.303837-2.59205 4.245519-6.320324 7.997034-9.615607 9.679547-4.756958 2.42933-14.256336 3.937485-22.1749 3.519041zm8.11327-9.374428c9.371511-.810746 14.599223-4.204829 19.109186-12.41108 2.237534-4.074068 7.22696-16.601383 11.042398-27.725158 4.710457-13.73908 10.963943-35.8355176 10.269439-36.2772146-.479453-.3022132-.868852-.0639283-1.005438.6189569-1.461665 7.2531187-5.465989 19.4811317-8.185916 25.0023337-3.341774 6.788175-8.761272 14.288295-13.067811 18.083396l-1.028694.906639-1.583703 3.943302c-7.122369 17.752122-8.313783 18.836021-20.695809 18.836021-12.297751 0-13.785571-1.336713-20.57956-18.525092-.685785-1.731911-1.336716-3.399896-1.450043-3.705016-.148195-.398108-.374857-.685792-.790402-1.002534-2.719919-2.07481-8.578207-9.557495-11.623585-14.843321-3.527759-6.128535-7.0758595-15.953371-9.5749316-26.516307-.7351917-3.1034972-.6654493-2.9262374-1.1187702-2.8826493-.70032.0668379-.3922959 1.8103739 1.5575617 8.8397373 5.7333341 20.640584 10.8767711 35.835518 16.8774471 49.862282 3.274946 7.654131 6.105287 11.597434 10.318843 14.372562 3.123834 2.05737 6.090756 2.926241 11.841524 3.469644 1.040311.09882 8.430001.06397 9.685354-.04339zm.241186-9.638851c5.108574-.656734 7.633796-2.574625 10.231665-7.770368.99382-1.987635 5.329435-12.475015 5.811807-14.058729l.09014-.293495-2.284036.07846c-1.255343.04358-3.838705.145293-5.736251.226661-4.573881.194693-22.221392.194693-26.879538 0-1.964384-.08137-4.602945-.18307-5.861197-.226661l-2.286936-.07846.08128.325459c.09014.363238 3.013424 7.69772 4.236792 10.629771 2.734455 6.561515 4.992345 9.333738 8.491041 10.429261 3.059906.958946 9.691164 1.304749 14.105213.738101zm9.990469-22.494549c2.397376-.101711 4.974898-.217943 5.727532-.26153l1.368682-.07846.732287-.677074c2.045739-1.894639 5.771104-6.422027 8.238217-10.013714 5.059163-7.360637 8.831009-16.743776 12.286123-30.552598.787497-3.1470858.886299-2.8623085-1.028684-2.9669205-26.612206-1.4820074-56.641743-1.5517483-81.568526-.1976012-1.1972304.0639284-2.8739325.1540131-3.7224537.1976012-1.9760098.1017015-1.8888326-.1046131-1.1652648 2.7722255 4.8470355 19.295153 10.2897805 30.282348 19.7949675 39.964796l1.441322 1.467478 1.150738.07555c1.078085.06974 9.502278.395203 12.591248.485287 3.495786.101712 20.129141-.04651 24.156721-.215039zm-47.235345-20.47204c-.142391-.104613-.165637-.988006-.139484-5.512487l.03198-5.387532 4.297822-.03486c2.830342-.02326 4.547728.01161 5.024298.101712 5.686826 1.06937 6.021015 9.202975.438784 10.696605-1.054839.281872-9.298867.40392-9.653387.139484zm8.36317-2.88265c1.8714-1.060652 1.670891-4.620376-.299308-5.28292-.60152-.200504-4.24842-.185976-4.379185.01746-.113331.177258-.136576 5.062072-.02614 5.349756.130765.342898 4.074065.273154 4.704645-.08426zm5.082409 2.90299c-.09298-.244095 2.185234-5.335226 3.847413-8.598547.999629-1.964387 1.720288-2.37993 4.152528-2.400271 3.190661-.02614 3.190661-.02326 7.064229 8.560771 1.287307 2.856498 1.374481 2.594966-.860144 2.592061-2.156179-.003-2.013785.05521-2.531041-1.028688l-.403917-.848522h-6.416217l-.967665 1.816186-1.909174.03198c-1.516875.02614-1.923701 0-1.973102-.130765zm9.943978-4.213549c.104611-.168541-1.76388-3.983985-1.949856-3.983985-.16854 0-2.019594 3.856125-1.926601 4.007232.09878.162729 3.774745.139483 3.873558-.02326zm10.283966 4.239703c-4.321057-.627675-6.093665-6.195372-2.966922-9.327929 1.499448-1.502348 2.327628-1.694138 7.17176-1.650548l3.667235.03198v2.54264l-6.939272.122048-.456248.36905c-1.455856 1.179794-1.330909 4.021762.220861 4.960366.363224.217944.685785.244096 3.786383.299307l3.391175.06102v2.664708l-3.571342.01746c-1.964384.0086-3.899713-.03198-4.297831-.09008zm9.641773-.02905c-.101733-.122053-.130777-1.615684-.107521-5.541551l.03215-5.373002h3.632372v11.01916l-1.70867.03486c-1.342517.02614-1.737725-.003-1.848145-.133671zm4.774384.0523c-.16562-.267342 4.100227-9.388951 4.698838-10.042777 1.316372-1.441326 5.651976-1.351243 6.78818.139482.685796.900828 4.759857 9.728942 4.573881 9.91492-.05809.05812-.944409.09008-1.973102.06974l-1.868492-.03487-.967664-1.816185h-6.416217l-.392289.772969c-.598622 1.176888-.427183 1.10424-2.522323 1.10424-1.019965 0-1.885938-.0494-1.923711-.110425zm9.981771-4.31235c0-.273154-1.781327-3.934584-1.914993-3.934584-.185997 0-.305104.209222-1.153641 2.022505-1.075175 2.295658-1.185605 2.095151 1.130395 2.095151 1.647642 0 1.938239-.02614 1.938239-.183072z" stroke-width="2.905896"/></svg>