<svg height="20" viewBox="0 0 100 100" width="20" xmlns="http://www.w3.org/2000/svg"><path d="m42.432 1.26915423c-1.9625.67462686-4.3625 1.86368159-5.3335 2.64278607-.9705.77910448-3.49 2.19701492-5.5985 3.15074627-4.401 1.99104477-4.6595 2.8119403-2.082 6.60945273 2.6 3.8308458 4.6315 4.6159204 6.677 2.5800995 1.446-1.438806 4.7105-1.2696517 5.5475.2870647.8175 1.519403-.6505 2.222388-4.1575 1.9920398-4.4745-.2940299-5.5445 1.3422885-3.1055 4.7507463 2.104 2.9398009 3.5705 3.4830845 6.01 2.2278606 2.5335-1.3034825 3.131-.8517412 1.9 1.436816-1.46 2.7149253-1.9055 2.6248756-12.1865-2.4646766-13.8035-6.8338309-20.7145-6.7527364-24.5495.2880597-1.3895 2.5507462.5545 5.1323383 3.5105 4.6616915 2.3345-.3711443 2.6345-.2477612 3.238 1.3313433.434 1.1363184 1.1645 1.740796 2.103 1.740796.7905 0 2.523.6681592 3.8495 1.4845771l2.412 1.4845771-4.333.8741294c-8.6515 1.7457711-10.843 2.8119403-12.5 6.0820895-2.956 5.8318408-1.146 9.4791045 3.8635 7.7870647 2.096-.7079602 3.219-.799005 3.817-.3094527.5245.4288557 4.7485.6422885 11.09.5597015 10.862-.1417911 12.8705.261194 16.375 3.2865671 1.643 1.418408 1.644 1.4228856.4075 3.518408-8.4725 14.3572139-10.0485 17.9034826-10.2905 23.1502487-.1305 2.8328359-.2805 5.1507463-.3335 5.1512438-2.078.019403-11.7225 2.2452737-12.8145 2.957214-1.4935.9736318-2.043 2.9447761-2.4605 8.8293532l-.154 2.1686567 15 .1179105 15 .1174129-.231-4.6731343-.231-4.6736319 7.768-8.681592 7.768-8.6820896 5.1295 3.8059702c8.204 6.0865671 9.1855 6.6860696 11.8445 7.2358209 3.094.639801 3.702 1.9467661 1.166 2.5074627-6.7635 1.4950248-7.739 2.560199-8.472 9.2517413l-.436 3.9800995 12.636-.0263682 12.6355-.0263682 3.0445-3.2527363c1.6745-1.7890547 3.0445-3.6472637 3.0445-4.1293532 0-1.4900498-8.3565-17.161194-12.2795-23.0278607-4.512-6.7472637-4.5095-5.9552239-.036-10.3507463 6.419-6.3079602 6.3345-8.1930348-1.0735-23.9820895-5.497-11.7164179-6.3595-14.8552239-4.9835-18.1328359 1.1325-2.6970149 3.706-3.3199004 3.706-.8965174 0 5.9303483 9.514 17.3064677 11.628 13.9034826.398-.640796-2.336-11.7900497-4.0345-16.4537313-2.432-6.6791045-11.0235-7.85970151-15.8305-2.1756219l-1.841 2.1771144-2.656-2.580597c-1.4605-1.41940298-2.823-3.24378109-3.0275-4.05422885-.2805-1.1119403-1.647-1.96318408-5.566-3.46716418-9.563-3.66915423-14.513-4.17213931-20.574-2.08955224m10.928 1.72487562c8.0695 2.03880597 11.6225 3.66915423 12.0905 5.54776119.238.95721394 2.3605 3.73134326 4.716 6.16467666 4.1475 4.2850746 4.3015 4.5681592 4.8695 8.9552238 1.4495 11.1885573 1.4555 11.1771145-6.7025 13.1955224-8.2275 2.0358209-8.1245 2.7144279 2.417 15.9358209 9.9825 12.5208955 17.3735 23.4517413 21.816 32.2656717l3.2335 6.4149253-2.2335 2.7343284-2.233 2.7348259-4.934-.378607c-2.7135-.2079602-6.337-.378607-8.0515-.378607-3.0855 0-3.114-.0199005-2.823-1.9935323.3165-2.1447761 1.1055-2.4830846 11.1415-4.7761194 5.4875-1.2537313 5.438-1.9089552-.9085-11.9905473-15.1475-24.063184-26.0585-33.4218905-57.508-49.3253731-7.2655-3.6736318-9.3495-4.4333333-12.954-4.721393-6.066-.4845771-5.4765-1.6925373.6755-1.3830846 4.812.241791 5.447.4885572 19.833 7.7124378 18.2565 9.1676617 17.692 9.1014925 21.018 2.4646766 4.4255-8.8323383 4.2185-10.579602-2.2205-18.7328358-4.8165-6.09900498-10.292-6.73781095-20.69-2.4154229-2.2195.9228856-3.5785.779602-3.5785-.3781094 0-.3034826 1.275-1.05522392 2.833-1.6701493 1.5585-.61492537 3.5835-1.80248756 4.5-2.63830845 1.9-1.73333334 7.418-3.87014926 11.027-4.27064677.381-.04228856 2.481.37462686 4.6665.92686567m-12.792 2.30845771c-1.814.72835821-2.572 1.9238806-1.7425 2.74975125.869.8641791 6.1745-1.2716418 6.1745-2.48557214 0-1.0278607-2.2025-1.15920398-4.432-.26417911m43.4965 40.44328354c1.242 2.8940299.0085 4.9089553-4.368 7.1348259-3.518 1.7895523-3.747 1.6800995-8.791-4.1995025-5.127-5.9771144-5.0105-6.762189 1.306-8.7810945 3.67-1.1736318 5.061-1.958209 5.615-3.1676617.7665-1.6741293 3.097 1.6940299 6.238 9.0134328m-52.099-.0124378c1.1545 1.2691543 1.0395 1.2920398-7.542 1.4925373-9.4255.2203981-11.417-1.2731343-2.906-2.1800995 7.4425-.7925373 9.2075-.6766169 10.448.6875622m14.6455 10.197015c1.111.8084577.8175 1.4039801-4.0005 8.1258706-7.997 11.1567164-9.808 14.9731343-9.275 19.5442786.534 4.5781095.1765 4.9343284-6.0145 5.9885572-5.888 1.0024876-6.7775 1.4810946-7.32 3.937811-.5155 2.3373134-2.3345 2.7149253-2.3345.4845771 0-3.039801 1.673-4.2880597 6.8285-5.0950249 7.9045-1.2373134 7.8265-1.1681592 7.6535-6.8044776-.162-5.2736318 2.9695-12.8477612 9.4715-22.9079602 2.866-4.4343284 3.1445-4.6169154 4.991-3.2736318" fill-rule="evenodd"/></svg>