<svg enable-background="new 0 0 527 527" height="20" viewBox="0 0 527 527" width="20" xmlns="http://www.w3.org/2000/svg"><path d="m263.3 3.7c-143.1 0-259.8 116.7-259.8 259.8s116.7 259.8 259.8 259.8 259.8-116.7 259.8-259.8c-.1-143.1-116.8-259.8-259.8-259.8zm0 489.6c-126.6 0-229.8-103.2-229.8-229.8s103.2-229.8 229.8-229.8 229.8 103.2 229.8 229.8-103.3 229.8-229.8 229.8z"/><path d="m188.9 439.1c-68.3-29.1-116.3-96.9-116.3-175.6 0-20 3.1-39.3 8.9-57.5z"/><path d="m316.2 446.7c-16.8 4.9-34.6 7.5-53 7.5s-36.1-2.6-52.9-7.5l52.9-123.5z"/><path d="m445.1 206.1c5.8 18.1 8.9 37.4 8.9 57.4 0 78.7-48.1 146.5-116.3 175.5z"/><path d="m359.4 98.9c23.3 13.7 43.4 32.1 59.1 54l-95 201.9-32-77.1h-56.4l-32 77.1-95-201.9c15.7-21.9 35.8-40.4 59.1-54l66.6 155.5h59z"/><path d="m263.3 72.8c18.6 0 36.7 2.7 53.7 7.7l-53.7 129.3-53.7-129.3c17-5 35-7.7 53.7-7.7z"/></svg>